<svg width="32" height="28" viewBox="0 0 32 28" fill="none" xmlns="http://www.w3.org/2000/svg">
<rect width="32" height="28" rx="14" fill="white"/>
<circle cx="15.4737" cy="15.7368" r="3.21053" fill="white" stroke="#FFBD2F" stroke-width="2"/>
<line x1="8.05261" y1="13.579" x2="8.05261" y2="20" stroke="black" stroke-width="2" stroke-linecap="round"/>
<path d="M22.842 20C22.842 20.5523 23.2898 21 23.842 21C24.3943 21 24.842 20.5523 24.842 20L22.842 20ZM22.842 13.5L22.842 20L24.842 20L24.842 13.5L22.842 13.5Z" fill="black"/>
<path d="M6 7.3158V10.579C6 11.6835 6.89543 12.579 8 12.579H8.21053C9.3151 12.579 10.2105 11.6835 10.2105 10.579V7.3158" stroke="black" stroke-width="2" stroke-linecap="round"/>
<rect x="21.7896" y="7.3158" width="4.21053" height="6.31579" rx="2" stroke="black" stroke-width="2"/>
</svg>
